<?xml version="1.0" encoding="UTF-8"?>
<svg version="1.1" xmlns="http://www.w3.org/2000/svg" width="192" height="192">
<path d="M0 0 C63.36 0 126.72 0 192 0 C192 63.36 192 126.72 192 192 C128.64 192 65.28 192 0 192 C0 128.64 0 65.28 0 0 Z " fill="#010101" transform="translate(0,0)"/>
<path d="M0 0 C3 -0.375 3 -0.375 6 0 C8.33850109 3.50775164 8.58508163 6.428142 9 10.5 C9.51865413 15.12466599 10.06979336 19.68617367 11 24.25 C12.183879 30.33587797 12.69120815 36.48546701 13.21484375 42.65722656 C13.7178697 48.2500809 14.68158035 53.53954528 16 59 C16.39678955 58.32646484 16.7935791 57.65292969 17.20239258 56.95898438 C42.62030357 13.91979762 42.62030357 13.91979762 53 7 C56.1875 6.875 56.1875 6.875 59 7 C58.38780327 10.03664682 57.42627209 12.16747798 55.69921875 14.73046875 C55.22266846 15.44235352 54.74611816 16.15423828 54.25512695 16.88769531 C53.73781006 17.64663086 53.22049316 18.40556641 52.6875 19.1875 C52.15278076 19.98124023 51.61806152 20.77498047 51.06713867 21.59277344 C47.38750747 27.03012167 43.61669609 32.39938774 39.8125 37.75 C26.42103184 56.40758909 26.42103184 56.40758909 19 78 C31.95326563 80.20619014 44.82511306 80.43003537 57.9375 80.625 C60.08530063 80.66327539 62.23308748 80.70233228 64.38085938 80.7421875 C69.5871248 80.83712337 74.79346153 80.9215239 80 81 C79.25 85.75 79.25 85.75 77 88 C74.48165894 88.24050903 74.48165894 88.24050903 71.26513672 88.22705078 C70.06404266 88.22689972 68.86294861 88.22674866 67.62545776 88.22659302 C66.32335358 88.21627045 65.02124939 88.20594788 63.6796875 88.1953125 C62.33733327 88.19158276 60.99497633 88.18873561 59.65261841 88.18673706 C56.117986 88.17909744 52.58351772 88.1594463 49.0489502 88.1373291 C45.4428123 88.11687765 41.83664791 88.10773685 38.23046875 88.09765625 C31.15357865 88.0762006 24.07680003 88.04206079 17 88 C17.48895752 89.86785156 17.48895752 89.86785156 17.98779297 91.7734375 C18.9842868 95.58011288 19.20728085 99.05051937 19.125 103 C19.10695313 104.134375 19.08890625 105.26875 19.0703125 106.4375 C19.04710938 107.283125 19.02390625 108.12875 19 109 C16.69 109 14.38 109 12 109 C6.97167505 87.30418169 5.45608256 65.24955154 3.76904297 43.09155273 C3.18290576 35.66373803 2.40534985 28.27057658 1.5 20.875 C1.38140625 19.88516113 1.2628125 18.89532227 1.140625 17.87548828 C0.62024471 13.79092725 0.06011708 9.92844187 -1.21875 6.0078125 C-1.4765625 5.01523437 -1.734375 4.02265625 -2 3 C-1.34 2.01 -0.68 1.02 0 0 Z " fill="#F5F5F5" transform="translate(14,46)"/>
<path d="M0 0 C1.22203125 -0.00515625 2.4440625 -0.0103125 3.703125 -0.015625 C6.75 0.25 6.75 0.25 8.75 2.25 C8.60985901 6.03380671 8.23973588 8.51539617 6.125 11.6875 C2.81205459 13.86706935 0.63995066 13.73624383 -3.25 13.25 C-4.58333333 12.25 -5.91666667 11.25 -7.25 10.25 C-13.47160304 8.9538327 -17.74646874 11.61284315 -22.98828125 14.875 C-34.45555952 22.87881979 -43.61998823 33.97872202 -48.25 47.25 C-49.01338901 52.27416486 -48.79559253 57.36157833 -45.8515625 61.6875 C-36.11084238 71.19064158 -17.36123855 70.60901511 -4.69921875 71.76953125 C-3.81363281 71.85178955 -2.92804688 71.93404785 -2.015625 72.01879883 C-0.35652004 72.16758409 1.30365833 72.30505963 2.96484375 72.4284668 C10.06844832 73.03422969 18.11248443 74.63748726 23.75 79.25 C25.29350218 82.40716354 25.73950677 84.74632478 25.8125 88.25 C22.65901027 97.15397102 10.78311969 101.40600347 2.75 105.25 C-5.72632758 109.12648242 -14.38041836 112.01536743 -23.3125 114.625 C-24.20533691 114.88812988 -25.09817383 115.15125977 -26.01806641 115.42236328 C-30.54341871 116.69610905 -34.49868262 117.57767706 -39.25 117.25 C-39.9375 114.9375 -39.9375 114.9375 -40.25 112.25 C-37.90696523 108.95762316 -34.82982614 108.27363176 -31.0703125 107.1640625 C-29.83023438 106.79023438 -28.59015625 106.41640625 -27.3125 106.03125 C-26.0002073 105.64512809 -24.68770617 105.25971389 -23.375 104.875 C-3.31783382 99.97604143 -3.31783382 99.97604143 13.75 89.25 C14.13473167 87.25924822 14.47263445 85.25852669 14.75 83.25 C6.6418006 81.65966328 -1.46210988 80.16162479 -9.64453125 79.00390625 C-10.33723114 78.90492035 -11.02993103 78.80593445 -11.74362183 78.70394897 C-14.56143379 78.30301438 -17.37946965 77.904949 -20.19995117 77.52319336 C-33.47776118 75.71403288 -46.58210019 73.51343297 -55.4375 62.5390625 C-57.52543242 58.75018513 -57.90545842 55.72455592 -57.8125 51.5 C-57.80154297 50.79407715 -57.79058594 50.0881543 -57.77929688 49.36083984 C-57.25119604 36.53679119 -48.05112992 26.4483595 -39.13671875 17.89453125 C-28.63396117 8.73995373 -14.18740651 -0.06037194 0 0 Z " fill="#F2F2F2" transform="translate(154.25,36.75)"/>
</svg>
